<?xml version="1.0" encoding="UTF-8" standalone="no"?>
<!DOCTYPE svg PUBLIC "-//W3C//DTD SVG 1.1//EN" "http://www.w3.org/Graphics/SVG/1.1/DTD/svg11.dtd">
<svg width="100%" height="100%" viewBox="0 0 1863 572" version="1.1" xmlns="http://www.w3.org/2000/svg" xmlns:xlink="http://www.w3.org/1999/xlink" xml:space="preserve" xmlns:serif="http://www.serif.com/" style="fill-rule:evenodd;clip-rule:evenodd;stroke-linejoin:round;stroke-miterlimit:2;">
    <g transform="matrix(7.57986,0,0,1.20572,-382.532,104.275)">
        <path d="M71.607,48.182C71.607,54.574 71.511,61.247 71.317,68.203C71.124,75.159 70.811,81.504 70.38,87.237C69.95,92.971 69.373,97.718 68.652,101.478C67.931,105.238 67.043,107.118 65.987,107.118L62.372,107.118L62.399,184.101L59.364,184.101L59.364,-9.344L65.723,-9.344C67.57,-9.344 69.013,-4.362 70.051,5.601C71.088,15.565 71.607,29.759 71.607,48.182ZM62.372,13.779L62.372,84.276L65.486,84.276C65.873,84.276 66.251,83.712 66.621,82.584C66.99,81.457 67.32,79.53 67.61,76.804C67.9,74.078 68.133,70.459 68.309,65.947C68.485,61.435 68.573,55.796 68.573,49.028C68.573,36.808 68.265,27.879 67.65,22.239C67.034,16.599 66.277,13.779 65.38,13.779L62.372,13.779Z" style="fill:white;fill-rule:nonzero;"/>
        <path d="M84.642,184.101C84.396,176.205 84.163,168.309 83.943,160.414C83.723,152.518 83.49,144.528 83.244,136.444L76.357,136.444L74.958,184.101L71.95,184.101C73.023,149.51 74.07,116.141 75.09,83.994C76.111,51.848 77.087,20.735 78.019,-9.344L81.792,-9.344L87.729,184.101L84.642,184.101ZM81.344,67.921C81.097,58.897 80.856,50.015 80.618,41.273C80.381,32.531 80.139,23.837 79.893,15.189L79.787,15.189L78.389,66.793C78.371,67.357 78.327,68.814 78.257,71.164C78.186,73.514 78.107,76.334 78.019,79.624C77.931,82.913 77.834,86.391 77.729,90.057C77.623,93.723 77.522,97.201 77.425,100.491C77.329,103.781 77.245,106.648 77.175,109.091C77.104,111.535 77.06,113.039 77.043,113.603L82.61,113.603L81.344,67.921Z" style="fill:white;fill-rule:nonzero;"/>
        <path d="M104.273,113.885C104.273,124.977 104.128,134.987 103.838,143.917C103.547,152.847 103.108,160.508 102.518,166.899C101.929,173.291 101.181,178.179 100.275,181.563C99.37,184.947 98.301,186.638 97.07,186.638C95.803,186.638 94.717,184.947 93.811,181.563C92.905,178.179 92.162,173.385 91.581,167.181C91.001,160.977 90.574,153.364 90.302,144.34C90.029,135.316 89.893,125.165 89.893,113.885L89.893,-9.344L92.848,-9.344L92.848,114.731C92.848,131.087 93.217,143.212 93.956,151.108C94.695,159.004 95.75,162.951 97.122,162.951C98.442,162.951 99.48,159.051 100.236,151.249C100.992,143.447 101.371,131.275 101.371,114.731L101.344,-9.344L104.299,-9.344L104.273,113.885Z" style="fill:white;fill-rule:nonzero;"/>
        <path d="M108.97,184.101L108.97,-9.344L111.978,-9.344L111.978,161.259L121.371,161.259L121.371,184.101L108.97,184.101Z" style="fill:white;fill-rule:nonzero;"/>
        <path d="M148.759,83.43C149.357,85.686 149.841,88.741 150.21,92.595C150.58,96.449 150.861,100.491 151.055,104.721C151.248,108.95 151.376,113.18 151.437,117.41C151.499,121.64 151.53,125.353 151.53,128.549C151.53,137.008 151.398,144.622 151.134,151.39C150.87,158.158 150.501,163.985 150.026,168.873C149.551,173.761 148.988,177.521 148.337,180.153C147.686,182.785 146.974,184.101 146.2,184.101L138.522,184.101L138.522,-9.062L145.646,-9.062C146.56,-9.062 147.356,-7.84 148.034,-5.396C148.711,-2.952 149.274,0.526 149.722,5.037C150.171,9.549 150.51,14.907 150.738,21.111C150.967,27.315 151.081,34.082 151.081,41.414C151.081,44.986 151.046,48.652 150.976,52.412C150.905,56.172 150.778,59.837 150.593,63.409C150.408,66.981 150.166,70.412 149.867,73.702C149.568,76.992 149.199,79.859 148.759,82.303L148.759,83.43ZM148.575,127.985C148.575,123.661 148.509,119.525 148.377,115.577C148.245,111.629 148.042,108.152 147.77,105.144C147.497,102.136 147.154,99.739 146.741,97.953C146.327,96.167 145.848,95.274 145.303,95.274L141.477,95.274L141.477,160.977L145.303,160.977C145.901,160.977 146.411,160.085 146.833,158.299C147.255,156.513 147.594,154.163 147.849,151.249C148.104,148.335 148.289,144.857 148.403,140.815C148.517,136.773 148.575,132.497 148.575,127.985ZM148.073,43.952C148.073,35.116 147.823,27.926 147.321,22.38C146.82,16.834 146.006,14.061 144.881,14.061L141.477,14.061L141.477,73.279L144.881,73.279C145.918,73.279 146.71,70.647 147.255,65.383C147.801,60.119 148.073,52.976 148.073,43.952Z" style="fill:white;fill-rule:nonzero;"/>
        <path d="M155.699,184.101L155.699,-9.344L158.707,-9.344L158.707,161.259L168.1,161.259L168.1,184.101L155.699,184.101Z" style="fill:white;fill-rule:nonzero;"/>
        <path d="M183.668,184.101C183.421,176.205 183.188,168.309 182.968,160.414C182.748,152.518 182.515,144.528 182.269,136.444L175.382,136.444L173.984,184.101L170.976,184.101C172.049,149.51 173.096,116.141 174.116,83.994C175.136,51.848 176.112,20.735 177.045,-9.344L180.818,-9.344L186.755,184.101L183.668,184.101ZM180.369,67.921C180.123,58.897 179.881,50.015 179.644,41.273C179.406,32.531 179.164,23.837 178.918,15.189L178.813,15.189L177.414,66.793C177.397,67.357 177.353,68.814 177.282,71.164C177.212,73.514 177.133,76.334 177.045,79.624C176.957,82.913 176.86,86.391 176.755,90.057C176.649,93.723 176.548,97.201 176.451,100.491C176.354,103.781 176.271,106.648 176.2,109.091C176.13,111.535 176.086,113.039 176.068,113.603L181.636,113.603L180.369,67.921Z" style="fill:white;fill-rule:nonzero;"/>
        <path d="M197.599,-12.728C198.549,-12.728 199.415,-11.976 200.198,-10.472C200.981,-8.968 201.68,-7.088 202.296,-4.832L201.768,18.573C201.065,16.129 200.387,14.484 199.736,13.638C199.086,12.792 198.488,12.369 197.942,12.369C196.095,12.369 194.714,18.902 193.8,31.967C192.885,45.033 192.428,63.691 192.428,87.942C192.428,99.034 192.516,109.091 192.691,118.115C192.867,127.139 193.166,134.846 193.589,141.238C194.011,147.63 194.582,152.565 195.304,156.043C196.025,159.521 196.931,161.259 198.021,161.259C198.25,161.259 198.536,161.118 198.879,160.836C199.222,160.555 199.587,160.132 199.974,159.568C200.361,159.004 200.757,158.346 201.161,157.594C201.566,156.842 201.944,155.902 202.296,154.774L202.824,177.051C202.472,178.555 202.076,179.871 201.636,180.999C201.196,182.127 200.739,183.114 200.264,183.96C199.789,184.806 199.31,185.464 198.826,185.934C198.342,186.404 197.881,186.638 197.441,186.638C195.893,186.638 194.6,184.195 193.562,179.307C192.524,174.419 191.689,167.604 191.056,158.863C190.422,150.121 189.969,139.781 189.697,127.844C189.424,115.906 189.288,102.794 189.288,88.506C189.288,77.791 189.411,66.464 189.657,54.527C189.903,42.589 190.339,31.638 190.963,21.675C191.588,11.711 192.436,3.487 193.509,-2.999C194.582,-9.485 195.946,-12.728 197.599,-12.728Z" style="fill:white;fill-rule:nonzero;"/>
        <path d="M209.789,72.433L210.95,58.615L216.94,-9.344L220.37,-9.344L213.404,67.075L220.687,184.101L217.23,184.101L211.425,88.506L209.605,108.246L209.605,184.101L206.65,184.101L206.65,-9.344L209.605,-9.344L209.605,72.433L209.789,72.433Z" style="fill:white;fill-rule:nonzero;"/>
        <path d="M223.747,184.101L223.747,-9.344L226.755,-9.344L226.755,161.259L236.149,161.259L236.149,184.101L223.747,184.101Z" style="fill:white;fill-rule:nonzero;"/>
        <path d="M254.698,87.66C254.698,101.76 254.531,114.825 254.197,126.857C253.862,138.888 253.365,149.369 252.706,158.299C252.046,167.228 251.224,174.184 250.239,179.166C249.254,184.148 248.11,186.638 246.809,186.638C245.366,186.638 244.135,184.289 243.115,179.589C242.094,174.889 241.259,168.262 240.608,159.709C239.957,151.155 239.478,140.862 239.17,128.831C238.862,116.799 238.708,103.358 238.708,88.506C238.708,74.971 238.853,62.093 239.144,49.874C239.434,37.654 239.904,26.939 240.555,17.727C241.206,8.515 242.046,1.184 243.075,-4.268C244.104,-9.72 245.349,-12.446 246.809,-12.446C248.286,-12.446 249.526,-9.72 250.529,-4.268C251.532,1.184 252.345,8.468 252.97,17.586C253.594,26.704 254.038,37.325 254.302,49.451C254.566,61.576 254.698,74.313 254.698,87.66ZM251.558,88.506C251.558,79.295 251.496,70.036 251.373,60.73C251.25,51.425 251.017,43.059 250.674,35.633C250.331,28.208 249.852,22.192 249.236,17.586C248.62,12.98 247.811,10.677 246.809,10.677C245.806,10.677 244.979,12.886 244.328,17.304C243.677,21.722 243.167,27.55 242.798,34.787C242.429,42.025 242.174,50.344 242.033,59.743C241.892,69.143 241.822,78.825 241.822,88.788C241.822,112.851 242.204,131.228 242.969,143.917C243.735,156.607 245.014,162.951 246.809,162.951C247.635,162.951 248.348,161.024 248.946,157.171C249.544,153.317 250.036,148.053 250.423,141.379C250.81,134.705 251.096,126.857 251.281,117.833C251.466,108.809 251.558,99.034 251.558,88.506Z" style="fill:white;fill-rule:nonzero;"/>
        <path d="M266.519,-12.728C267.469,-12.728 268.335,-11.976 269.118,-10.472C269.901,-8.968 270.6,-7.088 271.215,-4.832L270.688,18.573C269.984,16.129 269.307,14.484 268.656,13.638C268.005,12.792 267.407,12.369 266.862,12.369C265.015,12.369 263.634,18.902 262.719,31.967C261.804,45.033 261.347,63.691 261.347,87.942C261.347,99.034 261.435,109.091 261.611,118.115C261.787,127.139 262.086,134.846 262.508,141.238C262.93,147.63 263.502,152.565 264.223,156.043C264.944,159.521 265.85,161.259 266.941,161.259C267.17,161.259 267.455,161.118 267.798,160.836C268.141,160.555 268.506,160.132 268.893,159.568C269.28,159.004 269.676,158.346 270.081,157.594C270.485,156.842 270.864,155.902 271.215,154.774L271.743,177.051C271.391,178.555 270.996,179.871 270.556,180.999C270.116,182.127 269.659,183.114 269.184,183.96C268.709,184.806 268.229,185.464 267.746,185.934C267.262,186.404 266.8,186.638 266.36,186.638C264.812,186.638 263.52,184.195 262.482,179.307C261.444,174.419 260.608,167.604 259.975,158.863C259.342,150.121 258.889,139.781 258.616,127.844C258.344,115.906 258.207,102.794 258.207,88.506C258.207,77.791 258.33,66.464 258.577,54.527C258.823,42.589 259.258,31.638 259.883,21.675C260.507,11.711 261.356,3.487 262.429,-2.999C263.502,-9.485 264.865,-12.728 266.519,-12.728Z" style="fill:white;fill-rule:nonzero;"/>
        <path d="M278.445,72.433L279.606,58.615L285.596,-9.344L289.026,-9.344L282.06,67.075L289.342,184.101L285.886,184.101L280.081,88.506L278.26,108.246L278.26,184.101L275.305,184.101L275.305,-9.344L278.26,-9.344L278.26,72.433L278.445,72.433Z" style="fill:white;fill-rule:nonzero;"/>
        <path d="M86.449,308.259C87.544,308.259 87.795,308.591 87.967,308.591C88.085,308.591 88.151,308.425 88.151,307.761C88.151,307.264 88.085,306.932 87.98,306.932C87.874,306.932 87.729,307.098 87.505,307.098C87.043,307.098 86.938,306.434 86.938,304.361L86.938,283.543L87.769,283.543C89.273,283.792 89.893,289.183 90.46,295.984C91.172,305.273 91.687,309.005 92.729,309.005C93.257,309.005 93.6,308.342 93.811,307.512C93.917,307.098 93.93,306.766 93.89,306.268C93.851,305.937 93.785,305.771 93.679,306.102C93.508,306.683 93.376,307.346 93.085,307.346C92.399,307.346 92.149,303.614 91.423,294.159C90.988,288.602 90.394,284.87 89.339,283.211C90.909,281.967 91.99,277.572 91.99,267.204C91.99,255.427 90.618,250.202 88.072,250.202L87.795,250.202C87.373,250.202 86.99,250.451 86.449,250.451C85.869,250.451 85.236,250.202 84.945,250.202C84.84,250.202 84.747,250.368 84.747,251.032C84.747,251.612 84.813,251.861 84.932,251.861C85.038,251.861 85.183,251.778 85.407,251.778C85.869,251.778 85.974,252.359 85.974,254.515L85.974,304.361C85.974,306.434 85.869,307.098 85.407,307.098C85.183,307.098 85.038,306.932 84.932,306.932C84.813,306.932 84.761,307.264 84.761,307.761C84.761,308.425 84.84,308.591 84.932,308.591C85.051,308.591 85.499,308.259 86.449,308.259ZM86.938,281.802L86.938,254.349C86.938,252.524 87.043,251.861 87.373,251.861L88.138,251.861C90.011,251.861 90.961,256.423 90.961,266.956C90.961,276.908 90.011,281.802 88.244,281.802L86.938,281.802Z" style="fill:white;fill-rule:nonzero;"/>
        <path d="M100.078,300.546L100.078,283.294C100.078,270.273 98.996,264.799 97.109,264.799C95.645,264.799 94.8,268.614 94.774,275.332L94.774,275.664C94.774,277.489 95.025,279.065 95.355,279.065C95.684,279.065 95.988,277.489 95.988,275.249C95.988,272.844 95.658,271.6 95.421,271.6C95.328,271.6 95.236,271.766 95.157,272.015C95.381,268.697 95.961,266.541 96.964,266.541C98.402,266.541 99.154,270.937 99.154,282.548L99.154,284.621L97.848,284.621C95.671,284.621 94.391,287.856 94.391,297.394C94.391,305.605 95.407,309.005 96.687,309.005C97.98,309.005 98.785,305.024 99.167,300.546C99.246,306.351 99.695,308.922 100.526,308.922C101.133,308.922 101.436,307.761 101.595,306.932C101.687,306.517 101.74,305.854 101.687,305.439C101.621,305.024 101.516,305.107 101.423,305.605C101.331,306.102 101.146,307.264 100.803,307.264C100.315,307.264 100.078,304.941 100.078,300.546ZM95.315,297.477C95.315,289.598 96.08,286.28 97.848,286.28L99.154,286.28L99.154,293.081C99.115,298.223 98.732,302.121 98.178,304.527C97.782,306.268 97.347,307.098 96.898,307.098C95.961,307.098 95.315,304.361 95.315,297.477Z" style="fill:white;fill-rule:nonzero;"/>
        <path d="M104.26,304.361L104.26,265.96C104.26,265.131 104.247,264.882 104.167,264.882C104.075,264.882 104.009,265.131 103.877,265.795C103.64,266.956 103.138,267.536 102.677,267.536C102.545,267.536 102.36,267.453 102.241,267.453C102.149,267.453 102.057,267.702 102.057,268.283C102.057,268.863 102.136,269.112 102.241,269.112C102.347,269.112 102.545,268.946 102.677,268.946C103.165,268.946 103.323,269.61 103.323,272.264L103.323,304.361C103.323,306.434 103.218,307.098 102.756,307.098C102.531,307.098 102.386,306.932 102.268,306.932C102.175,306.932 102.109,307.264 102.109,307.761C102.109,308.342 102.188,308.591 102.268,308.591C102.373,308.591 102.545,308.425 102.756,308.425C103.099,308.425 103.442,308.259 103.785,308.259C104.141,308.259 104.484,308.425 104.814,308.425C105.038,308.425 105.196,308.591 105.302,308.591C105.394,308.591 105.46,308.342 105.46,307.761C105.46,307.264 105.394,306.932 105.302,306.932C105.183,306.932 105.051,307.098 104.814,307.098C104.365,307.098 104.26,306.434 104.26,304.361ZM103.231,253.52C103.231,255.593 103.468,256.837 103.772,256.837C104.101,256.837 104.378,255.427 104.378,253.271C104.378,251.114 104.128,249.705 103.811,249.705C103.508,249.705 103.231,251.28 103.231,253.52Z" style="fill:white;fill-rule:nonzero;"/>
        <path d="M107.927,308.259C108.27,308.259 108.627,308.425 108.956,308.425C109.167,308.425 109.339,308.591 109.445,308.591C109.537,308.591 109.603,308.342 109.603,307.761C109.603,307.264 109.537,306.932 109.445,306.932C109.326,306.932 109.181,307.098 108.956,307.098C108.508,307.098 108.389,306.434 108.389,304.361L108.389,247.548C108.389,246.719 108.376,246.47 108.297,246.47C108.218,246.47 108.152,246.719 108.02,247.299C107.769,248.46 107.281,249.124 106.819,249.124C106.687,249.124 106.503,249.041 106.371,249.041C106.291,249.041 106.186,249.29 106.186,249.87C106.186,250.451 106.278,250.617 106.371,250.617C106.489,250.617 106.674,250.534 106.819,250.534C107.32,250.534 107.452,251.114 107.452,253.851L107.452,304.858C107.439,306.6 107.307,307.098 106.898,307.098C106.661,307.098 106.529,306.932 106.397,306.932C106.305,306.932 106.239,307.264 106.239,307.761C106.239,308.342 106.318,308.591 106.397,308.591C106.516,308.591 106.674,308.425 106.898,308.425C107.228,308.425 107.571,308.259 107.927,308.259Z" style="fill:white;fill-rule:nonzero;"/>
        <path d="M113.429,307.346C112.083,307.346 111.16,302.619 111.067,296.15L111.041,293.745C111.041,292.915 111.028,292.418 110.909,292.418C110.79,292.418 110.764,292.915 110.764,293.828C110.764,294.491 110.817,295.984 110.869,299.716L110.883,301.624C110.922,304.692 110.896,306.683 110.896,307.264C110.896,308.093 110.949,308.425 111.028,308.425C111.146,308.425 111.173,308.01 111.173,307.181C111.186,305.937 111.107,304.692 111.239,304.692C111.331,304.692 111.41,304.775 111.582,305.688C111.859,306.849 112.453,309.088 113.429,309.088C115.078,309.088 116.001,304.941 116.001,296.647C116.001,278.567 111.489,286.778 111.489,274.42C111.489,269.941 112.03,266.541 113.297,266.541C114.563,266.541 115.368,270.439 115.46,276.162C115.474,277.157 115.474,277.903 115.474,278.318C115.474,279.148 115.5,279.645 115.606,279.645C115.724,279.645 115.751,279.148 115.751,278.235C115.751,277.572 115.711,276.328 115.672,273.425L115.645,270.356C115.632,269.444 115.632,266.956 115.632,266.043C115.632,265.131 115.592,264.716 115.5,264.716C115.381,264.716 115.342,265.131 115.342,265.96C115.342,267.453 115.408,268.449 115.289,268.449C115.197,268.449 115.157,268.117 114.906,267.204C114.59,266.126 114.128,264.799 113.297,264.799C111.727,264.799 110.896,269.278 110.896,276.659C110.896,292.666 115.395,284.373 115.395,298.472C115.395,303.946 114.708,307.346 113.429,307.346Z" style="fill:white;fill-rule:nonzero;"/>
        <path d="M126.912,302.536C126.978,303.614 127.017,304.444 127.017,305.107C127.017,306.6 126.846,307.098 126.556,307.098C126.318,307.098 126.186,306.932 126.054,306.932C125.922,306.932 125.87,307.346 125.87,307.678C125.87,308.259 125.922,308.591 126.081,308.591C126.358,308.591 126.951,308.259 127.743,308.259C128.139,308.259 128.772,308.591 129.141,308.591C129.273,308.591 129.353,308.342 129.353,307.678C129.353,307.181 129.273,306.932 129.141,306.932C129.023,306.932 128.917,307.098 128.732,307.098C128.271,307.098 128.152,306.517 127.835,301.541L124.761,252.027C124.643,250.119 124.603,249.622 124.498,249.622C124.405,249.622 124.352,250.202 124.247,252.027L121.173,301.873C120.883,306.434 120.658,307.098 120.302,307.098C120.197,307.098 120.012,306.932 119.867,306.932C119.735,306.932 119.682,307.181 119.682,307.678C119.682,308.342 119.761,308.591 119.867,308.591C120.249,308.591 120.645,308.259 121.041,308.259C121.846,308.259 122.096,308.591 122.347,308.591C122.519,308.591 122.585,308.176 122.585,307.595C122.585,307.098 122.519,306.849 122.374,306.849C122.242,306.849 122.083,307.098 121.859,307.098C121.542,307.098 121.397,306.849 121.397,305.522C121.397,304.858 121.437,303.863 121.516,302.536L122.281,289.929L126.134,289.929L126.912,302.536ZM124.207,258.745L126.015,288.105L122.4,288.105L124.207,258.745Z" style="fill:white;fill-rule:nonzero;"/>
        <path d="M131.74,276.576L131.714,276.576L131.714,265.96C131.714,265.131 131.701,264.882 131.622,264.882C131.556,264.882 131.49,265.131 131.345,265.795C131.107,266.956 130.606,267.536 130.144,267.536C130.012,267.536 129.828,267.453 129.696,267.453C129.616,267.453 129.524,267.702 129.524,268.283C129.524,268.863 129.603,269.112 129.696,269.112C129.814,269.112 130.012,268.946 130.144,268.946C130.632,268.946 130.791,269.61 130.791,272.264L130.791,324.349C130.791,326.422 130.672,327.086 130.223,327.086C129.986,327.086 129.854,326.92 129.735,326.92C129.63,326.92 129.577,327.252 129.577,327.749C129.577,328.33 129.656,328.579 129.735,328.579C129.841,328.579 129.999,328.413 130.223,328.413C130.553,328.413 130.909,328.247 131.252,328.247C131.595,328.247 131.952,328.413 132.281,328.413C132.506,328.413 132.664,328.579 132.77,328.579C132.862,328.579 132.928,328.33 132.928,327.749C132.928,327.252 132.875,326.92 132.77,326.92C132.651,326.92 132.519,327.086 132.281,327.086C131.833,327.086 131.714,326.422 131.714,324.349L131.714,306.6C132.295,308.342 132.954,309.586 133.799,309.586C135.909,309.586 136.978,302.204 136.978,286.28C136.978,272.098 136.055,264.799 134.273,264.799C133.007,264.799 132.136,268.614 131.714,277.572L131.74,276.991L131.74,276.576ZM134.089,266.707C135.698,266.707 136.002,275.913 136.002,286.363C136.002,299.633 135.487,307.761 133.719,307.761C132.928,307.761 132.149,306.102 131.714,304.195L131.714,287.027C131.833,273.674 132.783,266.707 134.089,266.707Z" style="fill:white;fill-rule:nonzero;"/>
        <path d="M140.329,276.576L140.303,276.576L140.303,265.96C140.303,265.131 140.289,264.882 140.21,264.882C140.144,264.882 140.078,265.131 139.933,265.795C139.696,266.956 139.194,267.536 138.733,267.536C138.601,267.536 138.416,267.453 138.284,267.453C138.205,267.453 138.113,267.702 138.113,268.283C138.113,268.863 138.192,269.112 138.284,269.112C138.403,269.112 138.601,268.946 138.733,268.946C139.221,268.946 139.379,269.61 139.379,272.264L139.379,324.349C139.379,326.422 139.26,327.086 138.812,327.086C138.574,327.086 138.442,326.92 138.324,326.92C138.218,326.92 138.165,327.252 138.165,327.749C138.165,328.33 138.245,328.579 138.324,328.579C138.429,328.579 138.588,328.413 138.812,328.413C139.142,328.413 139.498,328.247 139.841,328.247C140.184,328.247 140.54,328.413 140.87,328.413C141.094,328.413 141.253,328.579 141.358,328.579C141.45,328.579 141.516,328.33 141.516,327.749C141.516,327.252 141.464,326.92 141.358,326.92C141.239,326.92 141.107,327.086 140.87,327.086C140.421,327.086 140.303,326.422 140.303,324.349L140.303,306.6C140.883,308.342 141.543,309.586 142.387,309.586C144.498,309.586 145.567,302.204 145.567,286.28C145.567,272.098 144.643,264.799 142.862,264.799C141.596,264.799 140.725,268.614 140.303,277.572L140.329,276.991L140.329,276.576ZM142.677,266.707C144.287,266.707 144.59,275.913 144.59,286.363C144.59,299.633 144.076,307.761 142.308,307.761C141.516,307.761 140.738,306.102 140.303,304.195L140.303,287.027C140.421,273.674 141.371,266.707 142.677,266.707Z" style="fill:white;fill-rule:nonzero;"/>
        <path d="M149.762,307.346C148.416,307.346 147.493,302.619 147.4,296.15L147.374,293.745C147.374,292.915 147.361,292.418 147.242,292.418C147.123,292.418 147.097,292.915 147.097,293.828C147.097,294.491 147.15,295.984 147.203,299.716L147.216,301.624C147.255,304.692 147.229,306.683 147.229,307.264C147.229,308.093 147.282,308.425 147.361,308.425C147.48,308.425 147.506,308.01 147.506,307.181C147.519,305.937 147.44,304.692 147.572,304.692C147.664,304.692 147.743,304.775 147.915,305.688C148.192,306.849 148.786,309.088 149.762,309.088C151.411,309.088 152.335,304.941 152.335,296.647C152.335,278.567 147.823,286.778 147.823,274.42C147.823,269.941 148.363,266.541 149.63,266.541C150.897,266.541 151.701,270.439 151.794,276.162C151.807,277.157 151.807,277.903 151.807,278.318C151.807,279.148 151.833,279.645 151.939,279.645C152.057,279.645 152.084,279.148 152.084,278.235C152.084,277.572 152.044,276.328 152.005,273.425L151.978,270.356C151.965,269.444 151.965,266.956 151.965,266.043C151.965,265.131 151.926,264.716 151.833,264.716C151.714,264.716 151.675,265.131 151.675,265.96C151.675,267.453 151.741,268.449 151.622,268.449C151.53,268.449 151.49,268.117 151.24,267.204C150.923,266.126 150.461,264.799 149.63,264.799C148.06,264.799 147.229,269.278 147.229,276.659C147.229,292.666 151.728,284.373 151.728,298.472C151.728,303.946 151.042,307.346 149.762,307.346Z" style="fill:white;fill-rule:nonzero;"/>
        <path d="M158.628,327.915L158.628,247.133C158.628,246.719 158.628,246.553 158.548,246.553L158.311,246.553C158.232,246.553 158.232,246.802 158.232,247.133L158.232,327.998C158.232,328.33 158.245,328.496 158.285,328.496L158.548,328.496C158.601,328.496 158.628,328.33 158.628,327.915Z" style="fill:white;fill-rule:nonzero;"/>
        <path d="M175.58,255.261C175.725,252.441 175.989,251.695 176.319,251.695C176.517,251.695 176.596,251.861 176.794,251.861C176.9,251.861 176.966,251.612 176.966,251.114C176.966,250.368 176.9,250.202 176.768,250.202C176.398,250.202 175.884,250.617 175.501,250.617C174.921,250.617 174.578,250.202 174.353,250.202C174.169,250.202 174.103,250.534 174.103,251.114C174.103,251.612 174.195,251.861 174.301,251.861C174.459,251.861 174.604,251.695 174.828,251.695C175.198,251.695 175.343,252.441 175.198,255.178L173.008,299.467L170.409,250.368C170.382,249.87 170.356,249.705 170.277,249.705L170.25,249.705C170.171,249.705 170.145,249.87 170.119,250.368L167.454,299.136L165.461,256.34C165.395,255.096 165.369,254.1 165.369,253.437C165.369,252.027 165.501,251.695 165.791,251.695C166.108,251.695 166.161,251.861 166.306,251.861C166.438,251.861 166.49,251.612 166.49,251.114C166.49,250.534 166.438,250.202 166.266,250.202C166.055,250.202 165.541,250.617 164.881,250.617C164.366,250.617 163.707,250.202 163.285,250.202C163.153,250.202 163.087,250.451 163.087,251.114C163.087,251.612 163.179,251.861 163.271,251.861C163.482,251.861 163.482,251.695 163.707,251.695C164.089,251.695 164.287,252.359 164.472,256.257L166.992,308.342C167.031,309.171 167.071,309.503 167.15,309.503L167.163,309.503C167.256,309.503 167.282,309.254 167.335,308.259L169.96,259.74L172.572,308.342C172.625,309.254 172.665,309.503 172.744,309.503L172.757,309.503C172.823,309.503 172.863,309.337 172.902,308.342L175.58,255.261Z" style="fill:white;fill-rule:nonzero;"/>
        <path d="M180.145,264.799C178.034,264.799 176.926,273.922 176.926,287.441C176.926,300.711 177.955,309.171 180.277,309.171C181.187,309.171 181.741,308.093 182.375,306.434C182.77,305.439 182.797,305.356 182.863,305.107C183.008,304.609 183.008,304.112 182.955,303.697C182.916,303.282 182.85,303.282 182.718,303.614C182.573,304.029 182.507,304.527 182.296,305.024C181.702,306.351 181.135,307.264 180.356,307.264C178.958,307.264 178.021,303.2 177.902,290.427L179.631,290.427C181.702,290.427 182.836,286.446 182.836,277.986C182.836,269.61 181.794,264.799 180.145,264.799ZM180.145,266.458C181.319,266.458 181.966,270.273 181.966,277.738C181.966,285.036 181.227,288.768 179.604,288.768L177.889,288.768L177.889,287.275C177.889,273.425 178.694,266.458 180.145,266.458Z" style="fill:white;fill-rule:nonzero;"/>
        <path d="M184.934,305.522C184.934,306.351 184.947,306.517 185.04,306.766C185.29,307.595 186.385,309.586 187.507,309.586C190.462,309.586 191.108,298.472 191.108,286.778C191.108,272.015 190.079,264.882 188.325,264.882C186.939,264.882 186.28,269.444 185.871,276.576L185.871,247.548C185.871,246.719 185.858,246.47 185.778,246.47C185.699,246.47 185.62,246.719 185.501,247.299C185.251,248.46 184.749,249.124 184.301,249.124C184.156,249.124 183.984,249.041 183.852,249.041C183.773,249.041 183.668,249.29 183.668,249.87C183.668,250.451 183.76,250.617 183.852,250.617C183.971,250.617 184.156,250.534 184.301,250.534C184.802,250.534 184.934,251.114 184.934,253.851L184.934,305.522ZM188.114,267.122C189.67,267.122 190.132,276.411 190.132,287.11C190.132,299.053 189.578,307.844 187.494,307.844C186.887,307.844 186.359,307.429 185.858,306.517L185.858,287.027C186.016,274.005 186.821,267.122 188.114,267.122Z" style="fill:white;fill-rule:nonzero;"/>
        <path d="M197.335,304.361C197.335,306.434 197.217,307.098 196.768,307.098C196.544,307.098 196.385,306.932 196.28,306.932C196.174,306.932 196.122,307.264 196.122,307.761C196.122,308.425 196.174,308.591 196.333,308.591C196.557,308.591 197.349,308.259 197.824,308.259C198.338,308.259 198.919,308.508 199.499,308.508C203.048,308.508 204.934,299.633 204.934,279.645C204.934,259.159 202.942,250.202 199.499,250.202C199.077,250.202 198.655,250.534 197.797,250.534C197.269,250.534 196.57,250.202 196.306,250.202C196.174,250.202 196.122,250.368 196.122,251.032C196.122,251.612 196.174,251.861 196.28,251.861C196.385,251.861 196.544,251.695 196.768,251.695C197.217,251.695 197.335,252.359 197.335,254.432L197.335,304.361ZM199.407,306.932C198.404,306.932 198.298,306.434 198.298,304.609L198.298,254.432C198.298,252.276 198.364,251.778 199.288,251.778C202.533,251.778 203.892,259.408 203.892,279.396C203.892,298.97 202.573,306.932 199.407,306.932Z" style="fill:white;fill-rule:nonzero;"/>
        <path d="M209.684,264.799C207.573,264.799 206.465,273.922 206.465,287.441C206.465,300.711 207.494,309.171 209.816,309.171C210.726,309.171 211.28,308.093 211.913,306.434C212.309,305.439 212.336,305.356 212.402,305.107C212.547,304.609 212.547,304.112 212.494,303.697C212.454,303.282 212.388,303.282 212.257,303.614C212.111,304.029 212.045,304.527 211.834,305.024C211.241,306.351 210.673,307.264 209.895,307.264C208.497,307.264 207.56,303.2 207.441,290.427L209.169,290.427C211.241,290.427 212.375,286.446 212.375,277.986C212.375,269.61 211.333,264.799 209.684,264.799ZM209.684,266.458C210.858,266.458 211.505,270.273 211.505,277.738C211.505,285.036 210.766,288.768 209.143,288.768L207.428,288.768L207.428,287.275C207.428,273.425 208.233,266.458 209.684,266.458Z" style="fill:white;fill-rule:nonzero;"/>
        <path d="M219.75,270.854C219.895,268.614 220.04,267.951 220.502,267.951C220.74,267.951 220.845,268.117 220.977,268.117C221.069,268.117 221.135,267.785 221.135,267.204C221.135,266.707 221.069,266.458 220.977,266.458C220.858,266.458 220.713,266.624 220.502,266.624C220.225,266.624 220.08,266.79 219.79,266.79C219.486,266.79 219.262,266.624 218.985,266.624C218.774,266.624 218.615,266.458 218.51,266.458C218.431,266.458 218.352,266.707 218.352,267.204C218.352,267.785 218.418,268.117 218.51,268.117C218.629,268.117 218.774,267.951 218.985,267.951C219.447,267.951 219.539,268.614 219.407,270.688L217.362,302.37L215.278,270.771C215.133,268.697 215.251,267.951 215.713,267.951C215.937,267.951 216.056,268.117 216.175,268.117C216.28,268.117 216.346,267.785 216.346,267.204C216.346,266.707 216.267,266.458 216.175,266.458C216.069,266.458 215.924,266.624 215.713,266.624C215.37,266.624 214.935,266.79 214.578,266.79C214.235,266.79 213.906,266.624 213.576,266.624C213.365,266.624 213.22,266.458 213.114,266.458C213.008,266.458 212.956,266.707 212.956,267.204C212.956,267.785 213.008,268.117 213.114,268.117C213.233,268.117 213.352,267.951 213.576,267.951C213.998,267.951 214.143,268.697 214.341,271.351L216.9,308.922C216.927,309.42 216.966,309.586 217.046,309.586L217.085,309.586C217.164,309.586 217.204,309.337 217.23,308.922L219.75,270.854Z" style="fill:white;fill-rule:nonzero;"/>
        <path d="M224.79,264.799C222.679,264.799 221.571,273.922 221.571,287.441C221.571,300.711 222.6,309.171 224.922,309.171C225.832,309.171 226.386,308.093 227.019,306.434C227.415,305.439 227.441,305.356 227.507,305.107C227.653,304.609 227.653,304.112 227.6,303.697C227.56,303.282 227.494,303.282 227.362,303.614C227.217,304.029 227.151,304.527 226.94,305.024C226.346,306.351 225.779,307.264 225.001,307.264C223.602,307.264 222.666,303.2 222.547,290.427L224.275,290.427C226.346,290.427 227.481,286.446 227.481,277.986C227.481,269.61 226.439,264.799 224.79,264.799ZM224.79,266.458C225.964,266.458 226.61,270.273 226.61,277.738C226.61,285.036 225.872,288.768 224.249,288.768L222.534,288.768L222.534,287.275C222.534,273.425 223.339,266.458 224.79,266.458Z" style="fill:white;fill-rule:nonzero;"/>
        <path d="M230.331,308.259C230.674,308.259 231.03,308.425 231.36,308.425C231.571,308.425 231.742,308.591 231.848,308.591C231.94,308.591 232.006,308.342 232.006,307.761C232.006,307.264 231.94,306.932 231.848,306.932C231.729,306.932 231.584,307.098 231.36,307.098C230.911,307.098 230.792,306.434 230.792,304.361L230.792,247.548C230.792,246.719 230.779,246.47 230.7,246.47C230.621,246.47 230.555,246.719 230.423,247.299C230.172,248.46 229.684,249.124 229.223,249.124C229.091,249.124 228.906,249.041 228.774,249.041C228.695,249.041 228.589,249.29 228.589,249.87C228.589,250.451 228.682,250.617 228.774,250.617C228.893,250.617 229.077,250.534 229.223,250.534C229.724,250.534 229.856,251.114 229.856,253.851L229.856,304.858C229.843,306.6 229.711,307.098 229.302,307.098C229.064,307.098 228.932,306.932 228.8,306.932C228.708,306.932 228.642,307.264 228.642,307.761C228.642,308.342 228.721,308.591 228.8,308.591C228.919,308.591 229.077,308.425 229.302,308.425C229.631,308.425 229.975,308.259 230.331,308.259Z" style="fill:white;fill-rule:nonzero;"/>
        <path d="M233.114,287.11C233.114,299.633 234.025,309.586 236.413,309.586C238.774,309.586 239.711,299.633 239.711,287.11C239.711,274.586 238.774,264.799 236.413,264.799C234.025,264.799 233.114,274.586 233.114,287.11ZM236.413,266.458C238.128,266.458 238.748,274.752 238.748,287.11C238.748,299.633 238.128,307.927 236.413,307.927C234.711,307.927 234.091,299.633 234.091,287.11C234.091,274.752 234.711,266.458 236.413,266.458Z" style="fill:white;fill-rule:nonzero;"/>
        <path d="M243.035,276.576L243.009,276.576L243.009,265.96C243.009,265.131 242.996,264.882 242.917,264.882C242.851,264.882 242.785,265.131 242.64,265.795C242.402,266.956 241.901,267.536 241.439,267.536C241.307,267.536 241.122,267.453 240.991,267.453C240.911,267.453 240.819,267.702 240.819,268.283C240.819,268.863 240.898,269.112 240.991,269.112C241.109,269.112 241.307,268.946 241.439,268.946C241.927,268.946 242.086,269.61 242.086,272.264L242.086,324.349C242.086,326.422 241.967,327.086 241.518,327.086C241.281,327.086 241.149,326.92 241.03,326.92C240.925,326.92 240.872,327.252 240.872,327.749C240.872,328.33 240.951,328.579 241.03,328.579C241.136,328.579 241.294,328.413 241.518,328.413C241.848,328.413 242.204,328.247 242.547,328.247C242.89,328.247 243.247,328.413 243.576,328.413C243.801,328.413 243.959,328.579 244.064,328.579C244.157,328.579 244.223,328.33 244.223,327.749C244.223,327.252 244.17,326.92 244.064,326.92C243.946,326.92 243.814,327.086 243.576,327.086C243.128,327.086 243.009,326.422 243.009,324.349L243.009,306.6C243.59,308.342 244.249,309.586 245.094,309.586C247.204,309.586 248.273,302.204 248.273,286.28C248.273,272.098 247.35,264.799 245.568,264.799C244.302,264.799 243.431,268.614 243.009,277.572L243.035,276.991L243.035,276.576ZM245.384,266.707C246.993,266.707 247.297,275.913 247.297,286.363C247.297,299.633 246.782,307.761 245.014,307.761C244.223,307.761 243.444,306.102 243.009,304.195L243.009,287.027C243.128,273.674 244.078,266.707 245.384,266.707Z" style="fill:white;fill-rule:nonzero;"/>
        <path d="M252.97,264.799C250.859,264.799 249.751,273.922 249.751,287.441C249.751,300.711 250.78,309.171 253.102,309.171C254.012,309.171 254.566,308.093 255.199,306.434C255.595,305.439 255.621,305.356 255.687,305.107C255.833,304.609 255.833,304.112 255.78,303.697C255.74,303.282 255.674,303.282 255.542,303.614C255.397,304.029 255.331,304.527 255.12,305.024C254.526,306.351 253.959,307.264 253.181,307.264C251.782,307.264 250.846,303.2 250.727,290.427L252.455,290.427C254.526,290.427 255.661,286.446 255.661,277.986C255.661,269.61 254.619,264.799 252.97,264.799ZM252.97,266.458C254.144,266.458 254.79,270.273 254.79,277.738C254.79,285.036 254.051,288.768 252.429,288.768L250.714,288.768L250.714,287.275C250.714,273.425 251.518,266.458 252.97,266.458Z" style="fill:white;fill-rule:nonzero;"/>
        <path d="M261.387,272.098C261.387,274.254 261.664,275.747 261.967,275.747C262.323,275.747 262.6,274.171 262.6,272.015L262.6,271.766C262.574,267.785 262.165,264.799 261.387,264.799C259.856,264.799 259.289,274.337 259.118,278.318L259.118,265.96C259.118,265.048 259.104,264.799 259.025,264.799C258.946,264.799 258.88,265.048 258.748,265.712C258.511,266.873 258.009,267.536 257.548,267.536C257.416,267.536 257.218,267.453 257.112,267.453C257.02,267.453 256.928,267.619 256.928,268.283C256.928,268.863 257.007,269.029 257.099,269.029C257.205,269.029 257.402,268.863 257.548,268.863C258.036,268.863 258.181,269.527 258.181,272.264L258.181,304.361C258.181,306.434 258.075,307.098 257.614,307.098C257.389,307.098 257.257,306.932 257.125,306.932C257.033,306.932 256.967,307.264 256.967,307.761C256.967,308.342 257.046,308.591 257.125,308.591C257.244,308.591 257.402,308.425 257.614,308.425C257.957,308.425 258.3,308.259 258.643,308.259C258.999,308.259 259.342,308.425 259.685,308.425C259.896,308.425 260.067,308.591 260.16,308.591C260.252,308.591 260.331,308.342 260.331,307.761C260.331,307.264 260.265,306.932 260.16,306.932C260.054,306.932 259.909,307.098 259.685,307.098C259.236,307.098 259.118,306.434 259.118,304.361L259.118,289.266C259.118,278.484 259.883,266.292 261.387,266.292C261.769,266.292 262.033,267.287 262.191,268.697C262.126,268.531 262.046,268.366 261.967,268.366C261.703,268.366 261.387,269.776 261.387,272.098Z" style="fill:white;fill-rule:nonzero;"/>
    </g>
</svg>
